<svg xmlns="http://www.w3.org/2000/svg" viewBox="0 0 900 620" role="img" aria-label="Illustration musculaire premium face et dos">
  <defs>
    <radialGradient id="halo" cx="50%" cy="34%" r="58%">
      <stop offset="0" stop-color="#B7FF00" stop-opacity="0.18"/>
      <stop offset="0.42" stop-color="#00D7FF" stop-opacity="0.07"/>
      <stop offset="1" stop-color="#000000" stop-opacity="0"/>
    </radialGradient>
    <linearGradient id="skin" x1="0" x2="0" y1="0" y2="1">
      <stop offset="0" stop-color="#9DB8C8" stop-opacity="0.90"/>
      <stop offset="1" stop-color="#415B70" stop-opacity="0.94"/>
    </linearGradient>
    <linearGradient id="muscle" x1="0" x2="1" y1="0" y2="1">
      <stop offset="0" stop-color="#9DB8C8" stop-opacity="0.95"/>
      <stop offset="1" stop-color="#56738A" stop-opacity="0.95"/>
    </linearGradient>
    <filter id="softShadow" x="-30%" y="-30%" width="160%" height="160%">
      <feDropShadow dx="0" dy="18" stdDeviation="18" flood-color="#000000" flood-opacity="0.35"/>
    </filter>
    <style>
      .label{font:800 13px 'DM Sans',Arial,sans-serif;letter-spacing:.16em;text-transform:uppercase;fill:#9FB4C8;opacity:.72}
      .bone{fill:none;stroke:#F2F9FF;stroke-opacity:.62;stroke-width:2;stroke-linecap:round;stroke-linejoin:round;vector-effect:non-scaling-stroke}
      .cut{fill:none;stroke:#F2F9FF;stroke-opacity:.38;stroke-width:1.2;stroke-linecap:round;stroke-linejoin:round;vector-effect:non-scaling-stroke}
      .part{fill:url(#skin);stroke:#EAF6FF;stroke-opacity:.24;stroke-width:1.35;vector-effect:non-scaling-stroke}
      .zone{fill:url(#muscle);stroke:#F2F9FF;stroke-opacity:.62;stroke-width:1.15;vector-effect:non-scaling-stroke}
      .zone-soft{fill:#7D99AD;fill-opacity:.58;stroke:#F2F9FF;stroke-opacity:.44;stroke-width:1;vector-effect:non-scaling-stroke}
      .glass{fill:#071018;fill-opacity:.30;stroke:#B7FF00;stroke-opacity:.12;stroke-width:1}
    </style>
  </defs>
  <rect width="900" height="620" rx="38" fill="url(#halo)"/>
  <path class="glass" d="M64 38H836C857 38 874 55 874 76V544C874 565 857 582 836 582H64C43 582 26 565 26 544V76C26 55 43 38 64 38Z"/>
  <text class="label" x="280" y="74" text-anchor="middle">Face</text>
  <text class="label" x="684" y="74" text-anchor="middle">Dos</text>

  <g filter="url(#softShadow)" transform="translate(88 86)">
    <circle class="part" cx="192" cy="42" r="31"/>
    <path class="part" d="M166 73 C181 87 203 87 218 73 L231 112 C218 126 204 132 192 132 C180 132 166 126 153 112Z"/>
    <path class="part" d="M122 116 C161 79 223 79 262 116 C283 197 271 298 226 388 C213 412 200 424 192 424 C184 424 171 412 158 388 C113 298 101 197 122 116Z"/>
    <path class="part" d="M121 124 C73 153 58 239 78 306 C87 337 113 342 130 318 C139 259 150 197 171 140Z"/>
    <path class="part" d="M263 124 C311 153 326 239 306 306 C297 337 271 342 254 318 C245 259 234 197 213 140Z"/>
    <path class="part" d="M147 388 C186 385 207 410 213 474 L201 575 C187 616 154 614 144 566 C137 505 128 418 147 388Z"/>
    <path class="part" d="M237 388 C198 385 177 410 171 474 L183 575 C197 616 230 614 240 566 C247 505 256 418 237 388Z"/>

    <path class="zone" d="M122 142 C152 106 180 113 191 148 L190 204 C151 207 126 187 115 163Z"/>
    <path class="zone" d="M193 148 C204 113 232 106 262 142 L269 163 C258 187 233 207 194 204Z"/>
    <path class="zone-soft" d="M110 130 C128 100 158 88 181 110 C164 133 153 167 142 205 C113 201 96 181 91 154Z"/>
    <path class="zone-soft" d="M203 110 C226 88 256 100 274 130 L293 154 C288 181 271 201 242 205 C231 167 220 133 203 110Z"/>
    <path class="zone-soft" d="M96 198 C70 250 68 304 82 334 C100 372 131 342 134 297 C137 253 148 217 168 192 C145 205 119 206 96 198Z"/>
    <path class="zone-soft" d="M288 198 C314 250 316 304 302 334 C284 372 253 342 250 297 C247 253 236 217 216 192 C239 205 265 206 288 198Z"/>
    <path class="zone" d="M158 214 C179 224 205 224 226 214 C234 284 221 348 201 385 C195 394 189 394 183 385 C163 348 150 284 158 214Z"/>
    <path class="zone-soft" d="M143 397 C177 394 196 415 201 474 L190 558 C178 593 155 590 148 551 C140 494 132 420 143 397Z"/>
    <path class="zone-soft" d="M241 397 C207 394 188 415 183 474 L194 558 C206 593 229 590 236 551 C244 494 252 420 241 397Z"/>
    <path class="bone" d="M127 168 C164 190 220 190 257 168"/>
    <path class="cut" d="M192 209V384 M170 241H214 M165 274H219 M163 309H221 M169 345H215"/>
    <path class="cut" d="M153 428 C175 453 176 493 169 545 M231 428 C209 453 208 493 215 545"/>
    <path class="cut" d="M125 150 C148 152 170 165 190 191 M259 150 C236 152 214 165 194 191"/>
  </g>

  <g filter="url(#softShadow)" transform="translate(492 86)">
    <circle class="part" cx="192" cy="42" r="31"/>
    <path class="part" d="M166 73 C181 87 203 87 218 73 L231 112 C218 126 204 132 192 132 C180 132 166 126 153 112Z"/>
    <path class="part" d="M122 116 C161 79 223 79 262 116 C283 197 271 298 226 388 C213 412 200 424 192 424 C184 424 171 412 158 388 C113 298 101 197 122 116Z"/>
    <path class="part" d="M121 124 C73 153 58 239 78 306 C87 337 113 342 130 318 C139 259 150 197 171 140Z"/>
    <path class="part" d="M263 124 C311 153 326 239 306 306 C297 337 271 342 254 318 C245 259 234 197 213 140Z"/>
    <path class="part" d="M147 388 C186 385 207 410 213 474 L201 575 C187 616 154 614 144 566 C137 505 128 418 147 388Z"/>
    <path class="part" d="M237 388 C198 385 177 410 171 474 L183 575 C197 616 230 614 240 566 C247 505 256 418 237 388Z"/>

    <path class="zone" d="M123 142 C162 104 222 104 261 142 C252 252 224 337 192 392 C160 337 132 252 123 142Z"/>
    <path class="zone-soft" d="M110 130 C128 100 158 88 181 110 C164 133 153 167 142 205 C113 201 96 181 91 154Z"/>
    <path class="zone-soft" d="M203 110 C226 88 256 100 274 130 L293 154 C288 181 271 201 242 205 C231 167 220 133 203 110Z"/>
    <path class="zone-soft" d="M96 198 C70 250 68 304 82 334 C100 372 131 342 134 297 C137 253 148 217 168 192 C145 205 119 206 96 198Z"/>
    <path class="zone-soft" d="M288 198 C314 250 316 304 302 334 C284 372 253 342 250 297 C247 253 236 217 216 192 C239 205 265 206 288 198Z"/>
    <path class="zone-soft" d="M143 397 C177 394 196 415 201 474 L190 558 C178 593 155 590 148 551 C140 494 132 420 143 397Z"/>
    <path class="zone-soft" d="M241 397 C207 394 188 415 183 474 L194 558 C206 593 229 590 236 551 C244 494 252 420 241 397Z"/>
    <path class="bone" d="M192 116V394 M128 155 C164 189 220 189 256 155 M133 244 C165 211 219 211 251 244"/>
    <path class="cut" d="M145 171 C170 188 179 223 192 279 C205 223 214 188 239 171"/>
    <path class="cut" d="M153 428 C175 453 176 493 169 545 M231 428 C209 453 208 493 215 545"/>
  </g>
</svg>
